<svg xmlns="http://www.w3.org/2000/svg" viewBox="0 0 240 234"><style>.st0{fill:#020202}</style><g id="Calque_1"><path class="st0" d="M120.6 233.3c-27.4 0-54.8.1-82.2 0C14.2 233.2 1 220 .9 196V37.8C1 14.2 14.2.7 37.7.7 93 .6 148.3.6 203.7.7 225 .7 239 14.5 239 35.8c.1 54.1.1 108.2 0 162.4 0 21.3-14 35.1-35.4 35.1-27.7.1-55.3 0-83 0z"/><path class="st0" d="M121 10.8h83c14.8 0 24.8 10.1 24.8 25v162.4c0 14.8-10.1 24.8-25 24.8-55.4 0-110.7-.1-166.1.1-16.1.1-27.1-12-26.9-26.7.7-53.3.3-106.6.3-159.9 0-15.8 9.8-25.6 25.9-25.6 28.1-.1 56-.1 84-.1z"/></g><g id="Layer_1"><path id="path0_fill_1_" d="M94.6 193.1c14 0 25.4-11.4 25.4-25.4v-25.4H94.6c-14 0-25.4 11.4-25.4 25.4s11.4 25.4 25.4 25.4z" fill="#0acf83"/><path id="path1_fill_3_" d="M69.3 117c0-14 11.4-25.4 25.4-25.4H120v50.7H94.6c-14 .1-25.3-11.3-25.3-25.3z" fill="#a259ff"/><path id="path1_fill_2_" d="M69.3 66.3c0-14 11.4-25.4 25.4-25.4H120v50.7H94.6c-14 0-25.3-11.3-25.3-25.3z" fill="#f24e1e"/><path id="path2_fill_1_" d="M120 40.9h25.4c14 0 25.4 11.4 25.4 25.4s-11.4 25.4-25.4 25.4H120V40.9z" fill="#ff7262"/><path id="path3_fill_1_" d="M170.7 117c0 14-11.4 25.4-25.4 25.4S120 131 120 117s11.4-25.4 25.4-25.4 25.3 11.4 25.3 25.4z" fill="#1abcfe"/></g></svg>