<?xml version="1.0" encoding="utf-8"?>
<!-- Generator: Adobe Illustrator 25.0.1, SVG Export Plug-In . SVG Version: 6.00 Build 0)  -->
<svg version="1.1" id="Calque_1" xmlns="http://www.w3.org/2000/svg" xmlns:xlink="http://www.w3.org/1999/xlink" x="0px" y="0px"
	 viewBox="0 0 214 167" style="enable-background:new 0 0 214 167;" xml:space="preserve">
<style type="text/css">
	.st0{fill:#093A64;}
	.st1{fill:#00ABE9;}
	.st2{fill:#00EED0;}
	.st3{fill:#FCDA41;}
</style>
<g>
	<path class="st0" d="M107.4,152.5c-27,0-54,0-81,0c-14.3,0-23.5-9.2-23.5-23.5c0-34.9,0-69.9,0-104.8c0-14,9.2-23.3,23.2-23.3
		c54.2,0,108.5,0,162.7,0c13.8,0,23.1,9.3,23.1,23.1c0,35.1,0,70.2,0,105.3c0,14-9.3,23.2-23.3,23.2
		C161.6,152.5,134.5,152.5,107.4,152.5z M107.6,9.8c-27.5,0-55,0-82.5,0c-6.5,0-11.6,3.8-13,10c-0.6,2.4-0.9,4.7,1.7,6.8
		c27.7,21.2,55.4,42.5,83,63.8c7.4,5.7,15.6,5.8,22.9,0c27.3-21.4,54.6-42.9,82-64.3c0.9-0.7,1.3-1.5,1.4-2.7
		c0.1-7.7-5.4-13.4-13.3-13.5C162.4,9.7,135,9.8,107.6,9.8z M107.5,143.7c20.9,0,41.8,0,62.6,0c6.8,0,13.5,0,20.3,0
		c3.7,0,6.8-1.6,9.4-4.2c1.3-1.4,1.2-2.2-0.2-3.6c-18-17.4-35.9-34.8-53.8-52.3c-1.2-1.2-2-1.2-3.3-0.2c-5.6,4.5-11.3,8.9-16.9,13.3
		c-10.9,8.6-23.3,8.7-34.3,0.3c-5.6-4.3-11.3-8.6-16.8-13c-1.6-1.3-2.6-1.5-4.2,0.1c-6,5.9-12.2,11.6-18.4,17.3
		c-12.3,11.6-24.6,23.2-37,34.8c-1.1,1-1.1,1.7-0.2,2.8c3,3.4,6.8,4.7,11.2,4.7C53.2,143.7,80.3,143.7,107.5,143.7z M11.9,126.6
		c0.8,0.1,1.1-0.5,1.5-0.9C30.2,110,46.9,94.2,63.7,78.5c1.7-1.6,0.8-2.1-0.4-3C46.8,62.7,30.2,50,13.7,37.3c-0.5-0.4-1-1.2-1.8-0.9
		C11.9,66.5,11.9,96.6,11.9,126.6z M203.1,36.1c-0.9,0.7-1.4,1.1-1.9,1.5c-16,12.6-32,25.2-48.1,37.7c-1.8,1.4-1.3,2,0,3.2
		c16.2,15.7,32.3,31.3,48.5,47c0.4,0.4,0.7,1.1,1.6,1C203.1,96.5,203.1,66.5,203.1,36.1z"/>
	<path class="st1" d="M107.6,9.8c27.4,0,54.8,0,82.2,0c7.9,0,13.4,5.7,13.3,13.5c0,1.2-0.4,1.9-1.4,2.7
		c-27.3,21.4-54.6,42.9-82,64.3c-7.4,5.8-15.5,5.7-22.9,0C69.2,69,41.6,47.7,13.9,26.5c-2.7-2-2.3-4.3-1.7-6.8c1.5-6.1,6.5-10,13-10
		C52.6,9.8,80.1,9.8,107.6,9.8z"/>
	<path class="st2" d="M107.5,143.7c-27.2,0-54.3,0-81.5,0c-4.5,0-8.2-1.3-11.2-4.7c-1-1.1-0.9-1.8,0.2-2.8
		c12.4-11.6,24.7-23.2,37-34.8c6.1-5.8,12.3-11.4,18.4-17.3c1.6-1.6,2.6-1.4,4.2-0.1c5.5,4.4,11.2,8.7,16.8,13
		c11,8.4,23.5,8.3,34.3-0.3c5.6-4.5,11.3-8.8,16.9-13.3c1.3-1,2.1-1,3.3,0.2c17.9,17.5,35.8,34.9,53.8,52.3c1.4,1.3,1.5,2.2,0.2,3.6
		c-2.6,2.7-5.7,4.2-9.4,4.2c-6.8,0-13.5,0-20.3,0C149.2,143.7,128.4,143.7,107.5,143.7z"/>
	<path class="st3" d="M11.9,126.6c0-30.1,0-60.1,0-90.3c0.8-0.2,1.3,0.5,1.8,0.9C30.2,50,46.8,62.7,63.3,75.5c1.2,0.9,2.1,1.4,0.4,3
		C46.9,94.2,30.2,110,13.4,125.8C13,126.1,12.7,126.7,11.9,126.6z"/>
	<path class="st3" d="M203.1,36.1c0,30.4,0,60.4,0,90.4c-0.9,0.1-1.1-0.6-1.6-1c-16.2-15.7-32.3-31.4-48.5-47
		c-1.3-1.2-1.7-1.9,0-3.2c16.1-12.5,32.1-25.1,48.1-37.7C201.7,37.1,202.2,36.8,203.1,36.1z"/>
</g>
</svg>
