<svg xmlns="http://www.w3.org/2000/svg" viewBox="0 0 240 234"><path d="M204.4 130c-8.2 0-15.3 2-21.2 4.9-2.2-4.3-4.4-8.1-4.8-11-.4-3.3-.9-5.3-.4-9.2.5-3.9 2.8-9.5 2.8-10 0-.4-.5-2.4-5.2-2.5-4.7 0-8.8.9-9.2 2.1-.5 1.2-1.4 4.1-2 7-.8 4.3-9.4 19.5-14.3 27.5-1.6-3.1-3-5.8-3.2-8-.4-3.3-.9-5.3-.4-9.2.5-3.9 2.8-9.5 2.8-10 0-.4-.5-2.4-5.2-2.5-4.7 0-8.8.9-9.2 2.1s-1 4.2-2 7-12.4 28.2-15.4 34.9c-1.5 3.4-2.8 6.1-3.8 7.9-1 1.8 0 .1-.1.3-.8 1.6-1.3 2.4-1.3 2.4-.6 1.1-1.3 2.2-1.6 2.2-.2 0-.7-3.1.1-7.3 1.7-8.8 5.8-22.6 5.8-23.1 0-.2.8-2.7-2.7-3.9-3.3-1.2-4.5.8-4.8.8-.3 0-.5.7-.5.7s3.7-15.5-7.1-15.5c-6.8 0-16.1 7.4-20.7 14.1-2.9 1.6-9.1 5-15.7 8.6-2.5 1.4-5.1 2.8-7.6 4.2l-.5-.5c-13.1-13.9-37.2-23.8-36.2-42.5.3-6.5 2.6-24.5 46.3-46.3 35.8-17.8 64.4-12.9 69.4-2.1 7.1 15.5-15.3 44.4-52.5 48.6-14.2 1.6-21.6-3.9-23.5-5.9-2-2.1-2.2-2.2-3-1.8-1.2.6-.5 2.6 0 3.7 1.1 2.9 5.7 8 13.4 10.6 6.8 2.2 23.4 3.5 43.6-4.3 22.5-8.7 40.1-33 35-53.2-5.3-20.6-39.4-27.4-71.8-15.9-19.2 6.9-40.1 17.5-55.1 31.6C4.9 83.1 2.1 97.6 3.2 103.6c4.2 21.5 33.8 35.6 45.7 45.9-.6.3-1.1.6-1.6.9-5.9 2.9-28.6 14.8-34.2 27.3-6.4 14.2 1 24.4 5.9 25.7 15.3 4.3 30.9-3.4 39.3-16 8.4-12.6 7.4-28.9 3.5-36.3l-.1-.3 4.7-2.7c3-1.8 6-3.4 8.6-4.8-1.5 4-2.5 8.7-3.1 15.5-.6 8 2.7 18.5 7 22.6 1.9 1.8 4.2 1.8 5.6 1.8 5 0 7.3-4.2 9.8-9.1 3.1-6.1 5.8-13.1 5.8-13.1s-3.4 19.1 5.9 19.1c3.4 0 6.9-4.4 8.4-6.7 0 0 .1-.1.3-.5.2-.3.4-.6.5-.9 1.4-2.4 4.4-7.8 9-16.8 5.9-11.6 11.6-26.1 11.6-26.1s.5 3.6 2.2 9.4c1 3.5 3.2 7.3 4.9 11-1.4 1.9-2.2 3-2.2 3-1.1 1.5-2.3 3-3.6 4.6-4.7 5.6-10.2 11.9-11 13.8-.9 2.1-.7 3.7 1 5 1.2.9 3.4 1.1 5.8.9 4.2-.3 7.1-1.3 8.6-2 2.3-.8 4.9-2.1 7.4-3.9 4.6-3.4 7.4-8.2 7.1-14.6-.1-3.5-1.3-7-2.7-10.3l1.2-1.8c7.2-10.6 12.8-22.2 12.8-22.2s.5 3.6 2.2 9.4c.9 3 2.6 6.2 4.2 9.4-6.8 5.5-11 11.9-12.5 16.1-2.7 7.8-.6 11.3 3.4 12.1 1.8.4 4.3-.5 6.3-1.3 2.4-.8 5.3-2.1 7.9-4.1 4.6-3.4 9-8.1 8.7-14.4-.1-2.9-.9-5.8-2-8.5 5.8-2.4 13.2-3.7 22.7-2.6 20.3 2.4 24.4 15.1 23.6 20.4-.8 5.3-5 8.2-6.4 9.1-1.4.9-1.9 1.2-1.7 1.8.2 1 .8.9 2.1.7 1.7-.3 10.7-4.3 11.1-14.1.6-12.4-11.3-26.1-32.5-26zM47.6 182.9c-6.7 7.4-16.2 10.1-20.2 7.8-4.3-2.5-2.7-13.3 5.6-21.2 5-4.8 11.6-9.1 15.9-11.8 1-.6 2.4-1.5 4.2-2.5.3-.2.5-.3.5-.3.3-.2.7-.4 1.1-.6 2.9 11.1 0 20.9-7.1 28.6zm49.1-33.4c-2.3 5.7-7.3 20.4-10.2 19.6-2.6-.7-4.1-11.8-.5-22.8 1.8-5.5 5.7-12.1 8-14.7 3.7-4.1 7.7-5.5 8.7-3.8 1.2 2.2-4.5 18.1-6 21.7zm40.5 19.4c-1 .5-1.9.9-2.3.6-.3-.2.4-.9.4-.9s5.1-5.4 7.1-8c1.1-1.5 2.5-3.2 4-5.1v.5c0 6.7-6.3 11.1-9.2 12.9zm31.3-7.2c-.7-.5-.6-2.2 1.8-7.5 1-2.1 3.2-5.6 6.9-9 .5 1.4.7 2.7.7 3.9 0 8.3-5.8 11.4-9.4 12.6z" fill="#cf649a"/></svg>