<?xml version="1.0" encoding="utf-8"?>
<!-- Generator: Adobe Illustrator 25.0.1, SVG Export Plug-In . SVG Version: 6.00 Build 0)  -->
<svg version="1.1" id="Calque_1" xmlns="http://www.w3.org/2000/svg" xmlns:xlink="http://www.w3.org/1999/xlink" x="0px" y="0px"
	 viewBox="0 0 50 50" style="enable-background:new 0 0 50 50;" xml:space="preserve">
<style type="text/css">
	.st0{fill:#FDB03B;}
	.st1{fill:#020202;}
</style>
<path class="st0" d="M18.6,22.3c0-0.2-0.2-0.2-0.3-0.3c-1.6-1.6-3.2-3.2-4.7-4.7c-0.2-0.2-0.4-0.3-0.7-0.3c-1.9-0.2-3.4-1.9-3.3-3.8
	c0.1-1.9,1.7-3.5,3.6-3.6c2-0.1,3.6,1.4,3.9,3.3c0,0.2,0.1,0.4,0.2,0.6c1.7,1.7,3.3,3.3,5,5c0,0,0.1,0.1,0.2,0.2c0-0.8,0-1.5,0-2.2
	c0-1.7,0-3.4,0-5c0-0.2-0.1-0.4-0.2-0.6c-1-1.3-1.2-2.9-0.4-4.3c0.7-1.3,2.3-2,3.7-1.8c1.7,0.2,2.9,1.4,3.2,3c0.2,1.1,0,2.2-0.8,3.1
	c-0.1,0.2-0.2,0.3-0.2,0.5c0,2.4,0,4.8,0,7.3c0.2,0,0.2-0.1,0.3-0.2c1.6-1.6,3.2-3.2,4.8-4.8c0.2-0.2,0.3-0.4,0.3-0.6
	c0.2-1.9,1.8-3.3,3.7-3.4c1.9,0,3.5,1.4,3.7,3.4c0.2,1.8-1,3.6-2.9,4c-0.8,0.2-1.3,0.5-1.8,1c-1.5,1.5-2.9,2.9-4.4,4.4
	c0.1,0.2,0.3,0.1,0.4,0.1c2.3,0,4.5,0,6.8,0c0.3,0,0.5-0.1,0.7-0.2c1.1-0.9,2.4-1.1,3.8-0.6c1.3,0.5,2.1,1.6,2.3,3
	C45.5,25,45.3,25,45,25c-3.5,0-7,0-10.5,0c-9.8,0-19.6,0-29.3,0c-0.6,0-0.6,0-0.5-0.6c0.5-2.9,3.8-4.1,6.1-2.3
	c0.2,0.1,0.3,0.2,0.5,0.2c2.4,0,4.8,0,7.1,0C18.5,22.4,18.5,22.3,18.6,22.3z"/>
<path class="st1" d="M48.5,24.6c-0.1-2.8-2-5.2-4.6-6.2c-0.7-0.2-1.4-0.3-2.2-0.4c3-3.4,2-7.5,0.2-9.5c-1.1-1.2-2.5-2-4.1-2.2
	c-2.2-0.3-4.2,0.4-5.8,1.9c-0.2-4.2-3.4-6.6-6.2-6.8c-1.6-0.1-3.1,0.2-4.5,1.1c-2,1.3-3,3.3-3.1,5.7c-3.2-2.9-7.4-2.2-9.7,0
	c-2.2,2.2-3.1,6.4-0.1,9.8c-0.7,0-1.4,0.1-2,0.3c-2.9,1-4.8,3.4-4.9,6.9c0,5.4,0,10.8,0,16.2c0,0.7,0.1,1.3,0.2,1.9
	c0.8,3.2,3.5,5.2,6.9,5.2c11,0,21.9,0,32.9,0c0.6,0,1.2-0.1,1.8-0.2c2.9-0.6,5.1-3,5.4-6c0.1-1.3,0.1-2.6,0.1-3.9
	C48.6,33.9,48.7,29.3,48.5,24.6z M12.3,34.9c0.9,0.2,1.8,0.2,2.6,0.5c2.6,0.9,4.2,3.3,4.1,6c-0.2,2.8-2.2,5.1-4.9,5.7
	c-3.6,0.7-7.1-1.9-7.3-5.5c0-0.4,0.1-0.5,0.4-0.5c0.9,0,1.8,0,2.6,0c0.3,0,0.5,0.1,0.6,0.4c0.2,1.5,1.6,2.3,3.1,2
	c1.4-0.3,2.2-1.8,1.8-3.2c-0.3-0.9-1-1.5-1.9-1.7c-0.9-0.2-1.8-0.3-2.6-0.6c-2.3-0.8-3.6-2.5-4-4.9c-0.3-2.5,0.6-4.5,2.7-5.9
	c3.9-2.5,9,0,9.4,4.7c0,0.4-0.1,0.5-0.4,0.5c-0.5,0-0.9,0-1.4,0c-0.5,0-0.9,0-1.4,0c-0.3,0-0.4-0.1-0.4-0.4
	c-0.2-1.2-1.1-2.1-2.3-2.2c-1.1-0.1-2.2,0.6-2.5,1.7C9.9,33.1,10.8,34.6,12.3,34.9z M31.1,26.7c-0.9,4.3-1.8,8.7-2.7,13
	c-0.5,2.3-1,4.6-1.4,6.9c-0.1,0.4-0.2,0.6-0.6,0.5c-0.9,0-1.8,0-2.7,0c-0.3,0-0.4-0.1-0.5-0.4c-0.9-4.3-1.8-8.5-2.6-12.8
	c-0.5-2.4-1-4.9-1.5-7.3c-0.1-0.3,0-0.4,0.3-0.4c0.9,0,1.9,0,2.8,0c0.3,0,0.4,0.1,0.4,0.4c0.8,3.7,1.5,7.4,2.3,11.2
	c0,0.2,0.1,0.3,0.1,0.6c0.8-4,1.6-7.8,2.4-11.6c0.1-0.4,0.2-0.6,0.7-0.6c0.9,0,1.8,0,2.6,0C31.1,26.3,31.2,26.4,31.1,26.7z
	 M43.3,41.5c-0.1,2.6-2.2,5-4.8,5.5c-2.8,0.6-5.5-0.7-6.8-3.2c-0.4-0.9-0.7-1.8-0.7-2.8c0-2.8,0-5.7,0-8.5c0-3.2,2.5-6,5.6-6.2
	c3.4-0.2,6.2,2.1,6.6,5.4c0,0.1,0,0.3,0,0.4c0,0.2-0.1,0.3-0.3,0.3c-1,0-2,0-3,0c-0.3,0-0.3-0.1-0.4-0.3c-0.2-1.3-1.3-2.3-2.6-2.2
	c-1.4,0.1-2.4,1.1-2.4,2.5c0,0,0,0.1,0,0.1c0,1.4,0,2.8,0,4.2c0,0,0,0,0,0c0,1.5,0,3,0,4.4c0,1.3,1,2.3,2.3,2.4
	c1.2,0.1,2.4-0.7,2.6-1.8c0.2-1,0.1-2,0.1-3c0-0.2-0.2-0.2-0.3-0.2c-0.6,0-1.3,0-1.9,0c-0.2,0-0.3-0.1-0.3-0.3c0-1,0-2,0-3
	c0-0.2,0.1-0.3,0.3-0.3c1.8,0,3.6,0,5.5,0c0.3,0,0.3,0.1,0.3,0.3C43.4,37.4,43.4,39.4,43.3,41.5z M45,25c-3.5,0-7,0-10.5,0
	c-9.8,0-19.6,0-29.3,0c-0.6,0-0.6,0-0.5-0.6c0.5-2.9,3.8-4.1,6.1-2.3c0.2,0.1,0.3,0.2,0.5,0.2c2.4,0,4.8,0,7.1,0c0,0,0.1,0,0.1,0
	c0-0.2-0.2-0.2-0.3-0.3c-1.6-1.6-3.2-3.2-4.7-4.7c-0.2-0.2-0.4-0.3-0.7-0.3c-1.9-0.2-3.4-1.9-3.3-3.8c0.1-1.9,1.7-3.5,3.6-3.6
	c2-0.1,3.6,1.4,3.9,3.3c0,0.2,0.1,0.4,0.2,0.6c1.7,1.7,3.3,3.3,5,5c0,0,0.1,0.1,0.2,0.2c0-0.8,0-1.5,0-2.2c0-1.7,0-3.4,0-5
	c0-0.2-0.1-0.4-0.2-0.6c-1-1.3-1.2-2.9-0.4-4.3c0.7-1.3,2.3-2,3.7-1.8c1.7,0.2,2.9,1.4,3.2,3c0.2,1.1,0,2.2-0.8,3.1
	c-0.1,0.2-0.2,0.3-0.2,0.5c0,2.4,0,4.8,0,7.3c0.2,0,0.2-0.1,0.3-0.2c1.6-1.6,3.2-3.2,4.8-4.8c0.2-0.2,0.3-0.4,0.3-0.6
	c0.2-1.9,1.8-3.3,3.7-3.4c1.9,0,3.5,1.4,3.7,3.4c0.2,1.8-1,3.6-2.9,4c-0.8,0.2-1.3,0.5-1.8,1c-1.5,1.5-2.9,2.9-4.4,4.4
	c0.1,0.2,0.3,0.1,0.4,0.1c2.3,0,4.5,0,6.8,0c0.3,0,0.5-0.1,0.7-0.2c1.1-0.9,2.4-1.1,3.8-0.6c1.3,0.5,2.1,1.6,2.3,3
	C45.4,25,45.3,25,45,25z"/>
</svg>
