<svg xmlns="http://www.w3.org/2000/svg" viewBox="0 0 240 234"><path d="M6.3 82.3s-5.6-4.1 1.1-9.5l15.8-14.1s4.5-4.8 9.3-.6l145.7 110.3v52.9s-.1 8.3-10.7 7.4L6.3 82.3z" fill="#2489ca"/><path d="M43.8 116.4L6.3 150.5s-3.9 2.9 0 8l17.4 15.9s4.1 4.4 10.3-.6l39.8-30.2-30-27.2z" fill="#1070b3"/><path d="M109.8 116.7l68.9-52.6-.4-52.6S175.4 0 165.5 6L73.8 89.4l36 27.3z" fill="#0877b9"/><path d="M167.5 228.7c4 4.1 8.8 2.8 8.8 2.8L230 205c6.9-4.7 5.9-10.5 5.9-10.5V36.6c0-6.9-7.1-9.3-7.1-9.3L182.3 4.8C172.1-1.4 165.4 6 165.4 6s8.6-6.2 12.8 5.5v208.8c0 1.4-.3 2.8-.9 4.1-1.2 2.5-3.9 4.8-10.3 3.8l.5.5z" fill="#3c99d4"/></svg>